<svg width="204" height="32" viewBox="0 0 204 32" fill="none" xmlns="http://www.w3.org/2000/svg">
<path d="M36.824 7.78799L30.352 31.656H22.248L18.476 16.172L14.576 31.656H6.516L0 7.78799H7.332L10.716 24.856L14.748 7.78799H22.504L26.576 24.772L29.92 7.78799H36.824Z" fill="#2A4096"/>
<path d="M62.028 21.476H45.44C45.552 22.9587 46.0307 24.092 46.876 24.876C47.7225 25.6631 48.8446 26.0856 50 26.052C51.8293 26.052 53.1013 25.2827 53.816 23.744H61.6C61.2092 25.3078 60.4694 26.7629 59.436 28C58.3692 29.2692 57.0272 30.2788 55.512 30.952C53.8502 31.6755 52.0522 32.0329 50.24 32C48.0672 32.0354 45.9206 31.5208 44 30.504C42.1883 29.5215 40.7002 28.0348 39.716 26.224C38.6449 24.2263 38.1062 21.9863 38.152 19.72C38.1002 17.4596 38.6232 15.223 39.672 13.22C40.6456 11.4067 42.1294 9.91864 43.94 8.94C45.8795 7.91614 48.0472 7.4014 50.24 7.444C52.3829 7.40598 54.501 7.90662 56.4 8.9C58.1781 9.84706 59.6448 11.2874 60.624 13.048C61.6695 14.9759 62.1934 17.1434 62.144 19.336C62.1476 20.051 62.1088 20.7656 62.028 21.476ZM54.656 17.412C54.6828 16.8453 54.5808 16.2799 54.3577 15.7582C54.1346 15.2365 53.7962 14.7722 53.368 14.4C52.4747 13.6478 51.3352 13.2518 50.168 13.288C49.0357 13.2525 47.9297 13.634 47.06 14.36C46.1777 15.1411 45.6197 16.2241 45.496 17.396L54.656 17.412Z" fill="#2A4096"/>
<path d="M76.56 8.66401C77.86 7.90389 79.3421 7.51124 80.848 7.52801V15.272H78.848C77.0187 15.272 75.6467 15.664 74.732 16.448C73.8173 17.232 73.3613 18.608 73.364 20.576V31.656H66V7.78801H73.332V11.764C74.1504 10.4921 75.2561 9.43029 76.56 8.66401Z" fill="#2A4096"/>
<path d="M98.98 31.656L91.692 21.656V31.656H84.364V0H91.692V17.496L98.936 7.788H108L98.036 19.764L108.068 31.656H98.98Z" fill="#2A4096"/>
<path d="M148.016 7.67599H123.836V31.66H148.016V7.67599Z" fill="#2A4096"/>
<path d="M165.86 7.67999L151.9 31.664H179.82L165.86 7.67999Z" fill="#4E60A8"/>
<path d="M191.908 31.664C198.586 31.664 204 26.295 204 19.672C204 13.049 198.586 7.67999 191.908 7.67999C185.23 7.67999 179.816 13.049 179.816 19.672C179.816 26.295 185.23 31.664 191.908 31.664Z" fill="#FCB30A"/>
</svg>
